<svg width="128" height="128" viewBox="0 0 128 128" fill="none" xmlns="http://www.w3.org/2000/svg">
  <!-- Background -->
  <rect width="128" height="128" rx="24" fill="#0A0A14"/>
  
  <!-- Stars -->
  <circle cx="15" cy="21" r="1" fill="white"/>
  <circle cx="32" cy="12" r="1.2" fill="white"/>
  <circle cx="50" cy="18" r="0.8" fill="white"/>
  <circle cx="68" cy="10" r="1" fill="white"/>
  <circle cx="85" cy="25" r="0.7" fill="white"/>
  <circle cx="103" cy="17" r="1.1" fill="white"/>
  <circle cx="115" cy="32" r="0.9" fill="white"/>
  <circle cx="22" cy="40" r="0.8" fill="white"/>
  <circle cx="112" cy="98" r="1" fill="white"/>
  <circle cx="96" cy="108" r="0.8" fill="white"/>
  <circle cx="80" cy="117" r="1.2" fill="white"/>
  <circle cx="57" cy="115" r="0.7" fill="white"/>
  <circle cx="38" cy="110" r="1" fill="white"/>
  <circle cx="16" cy="105" r="0.6" fill="white"/>
  <circle cx="10" cy="85" r="0.8" fill="white"/>
  <circle cx="17" cy="65" r="0.9" fill="white"/>
  <circle cx="62" cy="8" r="0.7" fill="white"/>
  <circle cx="92" cy="13" r="1" fill="white"/>
  <circle cx="112" cy="44" r="0.8" fill="white"/>
  <circle cx="118" cy="64" r="0.6" fill="white"/>
  <circle cx="114" cy="80" r="0.9" fill="white"/>
  
  <!-- Glow Effect -->
  <circle cx="64" cy="64" r="42" fill="#461719" fillOpacity="0.7"/>
  
  <!-- Planet Red Sphere -->
  <circle cx="64" cy="64" r="32" fill="#801E1B"/>
  
  <!-- Planet Blue Sphere -->
  <circle cx="64" cy="64" r="24" fill="#10467E"/>
  
  <!-- Rings/Orbits -->
  <ellipse cx="64" cy="64" rx="38" ry="8" stroke="#E25B55" strokeWidth="3" transform="rotate(-15, 64, 64)"/>
  <ellipse cx="64" cy="64" rx="30" ry="6" stroke="#67A3D9" strokeWidth="2.5" transform="rotate(15, 64, 64)"/>
  
  <!-- Small moons -->
  <circle cx="40" cy="45" r="3" fill="#FFFFFF"/>
  <circle cx="92" cy="75" r="2" fill="#FFFFFF"/>
</svg> 