<svg xmlns="http://www.w3.org/2000/svg" viewBox="0 0 128 128">
  <!-- Background Circle -->
  <circle cx="64" cy="64" r="62" fill="#1a1a2e" />
  
  <!-- Stars -->
  <circle cx="25" cy="30" r="1.5" fill="#ffffff" />
  <circle cx="40" cy="20" r="1" fill="#ffffff" />
  <circle cx="100" cy="25" r="1.2" fill="#ffffff" />
  <circle cx="90" cy="40" r="0.8" fill="#ffffff" />
  <circle cx="110" cy="50" r="1" fill="#ffffff" />
  <circle cx="20" cy="80" r="1.2" fill="#ffffff" />
  <circle cx="30" cy="100" r="0.9" fill="#ffffff" />
  <circle cx="100" cy="85" r="1.3" fill="#ffffff" />
  <circle cx="80" cy="105" r="1" fill="#ffffff" />
  <circle cx="15" cy="50" r="1.1" fill="#ffffff" />
  <circle cx="115" cy="75" r="0.7" fill="#ffffff" />
  
  <!-- Planet -->
  <circle cx="64" cy="64" r="28" fill="#4b7bec" />
  
  <!-- Planet Surface Details -->
  <ellipse cx="52" cy="50" rx="10" ry="8" fill="#5f85e5" opacity="0.6" />
  <ellipse cx="75" cy="70" rx="12" ry="9" fill="#5f85e5" opacity="0.7" />
  
  <!-- Rings -->
  <ellipse cx="64" cy="64" rx="45" ry="12" fill="none" stroke="#f7b731" stroke-width="2.5" transform="rotate(15, 64, 64)" />
  <ellipse cx="64" cy="64" rx="40" ry="10" fill="none" stroke="#f7b731" stroke-width="1.5" transform="rotate(15, 64, 64)" />
  
  <!-- Small Moon -->
  <circle cx="95" cy="50" r="5" fill="#dfe4ea" />
  <circle cx="93" cy="48" r="1.5" fill="#ced6e0" />
</svg> 